<?xml version="1.0" encoding="UTF-8" standalone="no"?>
<!DOCTYPE svg PUBLIC "-//W3C//DTD SVG 1.1//EN" "http://www.w3.org/Graphics/SVG/1.1/DTD/svg11.dtd">
<svg xmlns="http://www.w3.org/2000/svg" version="1.1" viewBox="0.00 0.00 500.00 500.00">
<g stroke-width="2.00" fill="none" stroke-linecap="butt">
<path stroke="#898b89" stroke-opacity="0.984" vector-effect="non-scaling-stroke" d="
  M 219.25 92.79
  L 208.75 93.46"
/>
<path stroke="#898b89" stroke-opacity="0.984" vector-effect="non-scaling-stroke" d="
  M 195.25 209.69
  Q 193.95 208.82 192.76 208.71"
/>
<path stroke="#898b89" stroke-opacity="0.984" vector-effect="non-scaling-stroke" d="
  M 160.50 201.79
  L 155.64 201.01
  Q 155.09 200.93 155.03 200.37
  L 154.92 199.24"
/>
<path stroke="#898b89" stroke-opacity="0.984" vector-effect="non-scaling-stroke" d="
  M 179.98 148.80
  Q 177.44 148.09 174.22 148.85"
/>
<path stroke="#898b89" stroke-opacity="0.984" vector-effect="non-scaling-stroke" d="
  M 154.01 149.52
  L 145.75 149.71"
/>
<path stroke="#898b89" stroke-opacity="0.984" vector-effect="non-scaling-stroke" d="
  M 107.29 222.00
  Q 109.53 221.86 111.50 220.79"
/>
<path stroke="#898b89" stroke-opacity="0.984" vector-effect="non-scaling-stroke" d="
  M 126.50 217.71
  L 133.25 216.79"
/>
<path stroke="#898b89" stroke-opacity="0.984" vector-effect="non-scaling-stroke" d="
  M 134.00 216.71
  L 153.25 216.71"
/>
<path stroke="#898b89" stroke-opacity="0.984" vector-effect="non-scaling-stroke" d="
  M 156.75 217.04
  L 161.75 217.72"
/>
<path stroke="#898b89" stroke-opacity="0.984" vector-effect="non-scaling-stroke" d="
  M 162.83 493.23
  Q 160.79 493.06 159.25 493.71"
/>
<path stroke="#898b89" stroke-opacity="0.984" vector-effect="non-scaling-stroke" d="
  M 154.03 494.37
  L 134.50 494.29"
/>
<path stroke="#898b89" stroke-opacity="0.984" vector-effect="non-scaling-stroke" d="
  M 12.75 398.96
  Q 12.31 395.38 10.54 392.25"
/>
<path stroke="#898b89" stroke-opacity="0.984" vector-effect="non-scaling-stroke" d="
  M 43.29 262.50
  L 51.81 254.04"
/>
<path stroke="#898b89" stroke-opacity="0.984" vector-effect="non-scaling-stroke" d="
  M 108.54 96.96
  L 128.51 96.02"
/>
<path stroke="#898b89" stroke-opacity="0.984" vector-effect="non-scaling-stroke" d="
  M 179.50 94.46
  L 190.77 94.07"
/>
<path stroke="#898b89" stroke-opacity="0.984" vector-effect="non-scaling-stroke" d="
  M 359.00 251.46
  L 351.52 251.78"
/>
<path stroke="#898b89" stroke-opacity="0.984" vector-effect="non-scaling-stroke" d="
  M 324.02 308.35
  L 316.50 308.71"
/>
<path stroke="#898b89" stroke-opacity="0.984" vector-effect="non-scaling-stroke" d="
  M 308.50 309.54
  L 304.75 309.79"
/>
<path stroke="#898b89" stroke-opacity="0.984" vector-effect="non-scaling-stroke" d="
  M 289.58 303.48
  L 288.31 299.97"
/>
<path stroke="#898b89" stroke-opacity="0.984" vector-effect="non-scaling-stroke" d="
  M 287.23 297.51
  Q 287.30 296.15 286.33 294.98"
/>
<path stroke="#898b89" stroke-opacity="0.984" vector-effect="non-scaling-stroke" d="
  M 340.25 252.68
  L 346.75 252.21"
/>
<path stroke="#898b89" stroke-opacity="0.984" vector-effect="non-scaling-stroke" d="
  M 59.54 362.25
  L 59.96 368.25"
/>
<path stroke="#898b89" stroke-opacity="0.984" vector-effect="non-scaling-stroke" d="
  M 60.54 371.25
  L 60.96 374.50"
/>
<path stroke="#898b89" stroke-opacity="0.984" vector-effect="non-scaling-stroke" d="
  M 226.57 333.46
  Q 226.59 332.10 226.09 331.01"
/>
<path stroke="#898b89" stroke-opacity="0.984" vector-effect="non-scaling-stroke" d="
  M 152.75 270.96
  Q 144.75 269.72 136.75 270.79"
/>
</g>
<path fill="#ffffff" d="
  M 308.81 0.00
  L 325.06 0.00
  C 360.78 5.77 386.33 39.89 374.50 75.93
  Q 371.68 84.55 367.80 91.07
  Q 347.47 125.28 316.95 156.88
  Q 316.60 157.24 316.25 156.89
  C 296.65 137.24 278.62 112.82 264.61 89.14
  C 264.11 88.30 263.60 88.08 262.70 87.87
  A 0.34 0.30 52.0 0 1 262.74 87.23
  Q 262.90 87.25 263.02 87.26
  Q 263.98 87.28 263.55 86.42
  Q 258.05 75.43 257.30 71.47
  C 250.63 36.29 273.70 5.13 308.81 0.00
  Z
  M 344.24 59.38
  A 27.44 27.44 0.0 0 0 316.80 31.94
  A 27.44 27.44 0.0 0 0 289.36 59.38
  A 27.44 27.44 0.0 0 0 316.80 86.82
  A 27.44 27.44 0.0 0 0 344.24 59.38
  Z"
/>
<path fill="#10140f" fill-opacity="0.969" d="
  M 219.25 92.79
  L 208.75 93.46
  L 219.25 92.79
  Z"
/>
<path fill="#ffffff" d="
  M 219.25 92.79
  C 232.91 92.68 249.36 90.91 261.27 99.47
  C 282.97 115.04 289.54 138.70 277.15 162.81
  C 264.93 186.59 253.28 210.70 241.21 234.57
  Q 240.96 235.05 240.54 234.72
  Q 219.84 218.63 195.25 209.69
  Q 193.95 208.82 192.76 208.71
  Q 177.03 203.58 160.50 201.79
  L 155.64 201.01
  Q 155.09 200.93 155.03 200.37
  L 154.92 199.24
  L 179.98 148.80
  Q 177.44 148.09 174.22 148.85
  L 154.01 149.52
  L 145.75 149.71
  Q 142.24 149.45 139.01 150.75
  Q 138.53 150.95 138.16 150.59
  Q 137.16 149.62 136.15 150.29
  Q 135.69 150.60 135.13 150.55
  L 130.99 150.16
  Q 130.45 150.11 130.20 150.60
  L 126.87 157.06
  A 1.11 1.11 0.0 0 0 126.76 157.78
  Q 126.89 158.52 126.23 158.89
  A 1.17 1.11 -2.8 0 0 125.79 159.35
  L 91.59 227.50
  Q 91.33 228.02 91.86 227.79
  L 97.68 225.25
  Q 97.99 225.11 98.00 224.77
  Q 98.00 224.55 98.20 224.45
  Q 98.71 224.19 98.93 224.32
  L 99.25 224.52
  Q 99.56 224.70 99.89 224.58
  L 107.29 222.00
  Q 109.53 221.86 111.50 220.79
  C 115.48 219.91 120.19 219.20 123.93 217.70
  Q 125.10 217.22 126.50 217.71
  L 133.25 216.79
  L 134.00 216.71
  L 153.25 216.71
  L 156.75 217.04
  L 161.75 217.72
  Q 194.11 222.72 220.01 240.96
  Q 220.63 241.39 221.09 241.49
  Q 221.56 241.60 221.91 241.92
  Q 223.25 243.18 226.66 245.83
  C 253.56 266.65 272.97 296.11 280.48 329.49
  C 297.19 403.75 239.04 479.78 165.86 492.65
  Q 165.41 492.73 165.18 493.13
  Q 164.75 493.91 162.83 493.23
  Q 160.79 493.06 159.25 493.71
  L 154.03 494.37
  L 134.50 494.29
  C 84.91 489.22 43.23 459.32 19.94 415.71
  C 17.15 410.48 14.94 404.65 12.75 398.96
  Q 12.31 395.38 10.54 392.25
  Q 1.31 362.03 7.48 331.01
  C 12.60 305.27 25.45 281.65 43.29 262.50
  L 51.81 254.04
  L 64.22 243.80
  Q 64.65 243.45 64.10 243.38
  C 52.85 242.04 46.86 236.38 41.65 226.77
  C 39.82 223.39 39.78 218.07 39.64 214.28
  C 39.56 211.86 40.97 207.56 42.07 205.31
  Q 55.89 177.08 85.15 118.67
  C 90.66 107.66 95.83 99.82 108.54 96.96
  L 128.51 96.02
  L 179.50 94.46
  L 190.77 94.07
  L 208.75 93.46
  L 219.25 92.79
  Z
  M 136.75 270.79
  C 95.38 273.57 65.01 301.31 59.95 343.02
  Q 59.09 350.11 59.54 362.25
  L 59.96 368.25
  L 60.54 371.25
  L 60.96 374.50
  C 65.89 400.96 82.07 422.69 106.79 433.08
  Q 135.08 444.98 165.28 438.31
  Q 211.51 428.09 225.49 382.42
  Q 225.67 381.82 225.69 380.57
  C 225.72 379.06 226.85 377.28 227.06 376.15
  C 229.53 362.63 230.09 346.89 226.57 333.46
  Q 226.59 332.10 226.09 331.01
  C 216.86 295.66 188.64 273.46 152.75 270.96
  Q 144.75 269.72 136.75 270.79
  Z"
/>
<path fill="#10140f" fill-opacity="0.969" d="
  M 190.77 94.07
  L 179.50 94.46
  L 190.77 94.07
  Z"
/>
<path fill="#10140f" fill-opacity="0.969" d="
  M 128.51 96.02
  L 108.54 96.96
  Q 118.43 95.21 128.51 96.02
  Z"
/>
<path fill="#10140f" fill-opacity="0.969" d="
  M 179.98 148.80
  L 174.22 148.85
  Q 177.44 148.09 179.98 148.80
  Z"
/>
<path fill="#10140f" fill-opacity="0.969" d="
  M 154.01 149.52
  L 145.75 149.71
  L 154.01 149.52
  Z"
/>
<path fill="#10140f" fill-opacity="0.969" d="
  M 154.92 199.24
  L 155.03 200.37
  Q 155.09 200.93 155.64 201.01
  L 160.50 201.79
  Q 153.38 203.18 154.92 199.24
  Z"
/>
<path fill="#10140f" fill-opacity="0.969" d="
  M 192.76 208.71
  Q 193.95 208.82 195.25 209.69
  Q 193.12 210.13 192.76 208.71
  Z"
/>
<path fill="#10140f" fill-opacity="0.969" d="
  M 153.25 216.71
  L 134.00 216.71
  Q 143.64 215.18 153.25 216.71
  Z"
/>
<path fill="#10140f" fill-opacity="0.969" d="
  M 133.25 216.79
  L 126.50 217.71
  Q 129.77 216.40 133.25 216.79
  Z"
/>
<path fill="#10140f" fill-opacity="0.969" d="
  M 156.75 217.04
  Q 159.51 216.62 161.75 217.72
  L 156.75 217.04
  Z"
/>
<path fill="#10140f" fill-opacity="0.969" d="
  M 111.50 220.79
  Q 109.53 221.86 107.29 222.00
  Q 109.17 220.53 111.50 220.79
  Z"
/>
<path fill="#10140f" fill-opacity="0.969" d="
  M 359.00 251.46
  L 351.52 251.78
  Q 355.36 250.68 359.00 251.46
  Z"
/>
<path fill="#ffffff" d="
  M 359.00 251.46
  C 371.00 250.75 380.31 256.80 385.59 267.40
  Q 420.99 338.59 456.55 409.70
  C 460.65 417.91 463.79 423.30 464.65 429.71
  C 468.03 455.18 436.46 469.68 418.65 451.95
  Q 415.66 448.97 412.37 442.40
  Q 379.55 376.94 346.83 311.43
  Q 345.63 309.04 344.31 306.72
  Q 344.04 306.27 343.53 306.38
  C 336.89 307.84 329.48 307.48 324.02 308.35
  L 316.50 308.71
  L 308.50 309.54
  L 304.75 309.79
  L 292.70 310.64
  A 0.70 0.70 0.0 0 1 291.99 310.18
  L 289.58 303.48
  L 288.31 299.97
  L 287.23 297.51
  Q 287.30 296.15 286.33 294.98
  Q 278.05 275.60 264.80 259.21
  A 0.51 0.51 0.0 0 1 265.16 258.39
  L 340.25 252.68
  L 346.75 252.21
  L 351.52 251.78
  L 359.00 251.46
  Z"
/>
<path fill="#10140f" fill-opacity="0.969" d="
  M 346.75 252.21
  L 340.25 252.68
  Q 343.38 251.46 346.75 252.21
  Z"
/>
<path fill="#10140f" fill-opacity="0.969" d="
  M 51.81 254.04
  L 43.29 262.50
  Q 46.96 257.74 51.81 254.04
  Z"
/>
<path fill="#10140f" fill-opacity="0.969" d="
  M 152.75 270.96
  L 136.75 270.79
  Q 144.75 269.72 152.75 270.96
  Z"
/>
<path fill="#10140f" fill-opacity="0.969" d="
  M 286.33 294.98
  Q 287.30 296.15 287.23 297.51
  Q 286.01 296.47 286.33 294.98
  Z"
/>
<path fill="#10140f" fill-opacity="0.969" d="
  M 288.31 299.97
  L 289.58 303.48
  Q 288.03 301.88 288.31 299.97
  Z"
/>
<path fill="#10140f" fill-opacity="0.969" d="
  M 324.02 308.35
  L 316.50 308.71
  L 324.02 308.35
  Z"
/>
<path fill="#10140f" fill-opacity="0.969" d="
  M 308.50 309.54
  Q 306.68 310.39 304.75 309.79
  L 308.50 309.54
  Z"
/>
<path fill="#10140f" fill-opacity="0.969" d="
  M 226.09 331.01
  Q 226.59 332.10 226.57 333.46
  Q 225.32 332.14 226.09 331.01
  Z"
/>
<path fill="#10140f" fill-opacity="0.969" d="
  M 59.54 362.25
  L 59.96 368.25
  L 59.54 362.25
  Z"
/>
<path fill="#10140f" fill-opacity="0.969" d="
  M 60.54 371.25
  Q 61.39 372.72 60.96 374.50
  L 60.54 371.25
  Z"
/>
<path fill="#10140f" fill-opacity="0.969" d="
  M 10.54 392.25
  Q 12.31 395.38 12.75 398.96
  Q 10.67 395.91 10.54 392.25
  Z"
/>
<path fill="#10140f" fill-opacity="0.969" d="
  M 162.83 493.23
  Q 161.08 494.26 159.25 493.71
  Q 160.79 493.06 162.83 493.23
  Z"
/>
<path fill="#10140f" fill-opacity="0.969" d="
  M 134.50 494.29
  L 154.03 494.37
  Q 144.23 495.92 134.50 494.29
  Z"
/>
</svg>
