<?xml version="1.0" encoding="UTF-8" standalone="no"?>
<!DOCTYPE svg PUBLIC "-//W3C//DTD SVG 1.1//EN" "http://www.w3.org/Graphics/SVG/1.1/DTD/svg11.dtd">
<svg xmlns="http://www.w3.org/2000/svg" version="1.1" viewBox="0.00 0.00 500.00 500.00">
<path fill="#000000" d="
  M 256.49 59.30
  C 257.08 19.70 295.28 -8.26 333.47 2.63
  C 363.74 11.27 383.20 42.28 374.77 73.73
  Q 373.71 77.69 368.22 88.48
  Q 362.69 99.37 351.73 114.25
  Q 335.64 136.09 317.07 155.88
  Q 316.73 156.24 316.39 155.88
  Q 296.83 135.33 280.09 112.38
  Q 267.75 95.46 260.41 78.32
  C 257.99 72.66 256.39 65.67 256.49 59.30
  Z
  M 344.80 59.33
  A 28.02 28.02 0.0 0 0 316.78 31.31
  A 28.02 28.02 0.0 0 0 288.76 59.33
  A 28.02 28.02 0.0 0 0 316.78 87.35
  A 28.02 28.02 0.0 0 0 344.80 59.33
  Z"
/>
<path fill="#000000" d="
  M 6.14 337.51
  C 11.50 301.58 33.24 266.30 62.73 244.87
  Q 65.35 242.96 62.12 243.17
  Q 61.78 243.19 60.00 242.68
  C 48.09 239.29 40.29 229.81 39.72 217.50
  C 39.36 209.73 42.11 205.12 45.47 198.38
  Q 66.83 155.44 88.26 112.54
  C 97.31 94.44 113.55 96.05 131.16 95.83
  Q 136.32 95.77 146.32 95.23
  C 153.08 94.88 160.33 95.07 166.55 94.78
  C 189.00 93.75 210.11 93.56 233.96 92.60
  C 270.21 91.13 294.74 127.94 278.17 160.84
  Q 262.21 192.54 246.45 224.35
  Q 243.88 229.52 240.99 234.55
  A 0.47 0.47 0.0 0 1 240.29 234.69
  Q 202.57 205.19 154.60 201.48
  A 0.63 0.62 -74.6 0 1 154.09 200.58
  L 179.76 149.28
  A 0.26 0.26 0.0 0 0 179.52 148.90
  L 131.13 150.34
  A 1.38 1.36 -77.3 0 0 129.94 151.10
  L 92.13 226.75
  A 0.37 0.37 0.0 0 0 92.61 227.26
  C 129.33 211.30 169.30 212.72 204.56 231.43
  C 237.70 249.01 264.37 278.69 276.47 314.43
  Q 292.60 362.08 271.77 408.53
  Q 255.47 444.89 222.06 468.81
  C 195.07 488.13 160.52 498.75 127.19 493.71
  C 66.38 484.51 15.28 434.13 6.06 373.29
  C 4.38 362.16 4.43 348.97 6.14 337.51
  Z
  M 135.75 439.71
  C 196.79 444.87 236.34 399.59 227.65 340.28
  C 219.82 286.79 171.37 262.57 122.13 273.11
  C 75.95 283.00 54.09 325.82 60.56 370.23
  Q 66.44 410.61 100.10 429.63
  C 111.24 435.93 122.95 438.63 135.75 439.71
  Z"
/>
<path fill="#000000" d="
  M 292.79 310.84
  A 1.09 1.08 79.1 0 1 291.68 310.08
  Q 282.96 282.23 264.90 259.33
  A 0.72 0.71 68.9 0 1 265.41 258.17
  C 293.68 256.16 321.93 253.78 350.20 251.71
  Q 350.26 251.71 355.78 251.12
  Q 370.41 249.57 379.63 259.01
  Q 383.17 262.64 388.54 273.38
  Q 425.26 346.84 461.93 420.32
  C 473.06 442.62 450.91 467.98 427.26 457.91
  C 419.78 454.73 415.87 450.02 412.01 442.29
  Q 378.26 374.78 344.52 307.26
  Q 344.29 306.79 343.77 306.84
  L 292.79 310.84
  Z"
/>
</svg>
